<svg xmlns="http://www.w3.org/2000/svg" viewBox="0 0 750 500"><g id="freepik--background-simple--inject-74"><path d="M600.07,108.44l-2.75-4.53c-23.18-38.19-65.09-61.22-109.27-58.43a115.13,115.13,0,0,0-16.92,2.33c-40.17,8.6-75.13,39-89.62,77.88-8.52,22.88-10.9,49.23-27.07,67.39-21,23.64-56.77,24.38-88.19,23.4s-67.16-.14-88.11,23.59c-13.11,14.86-17.28,36-16.22,55.9,2.8,52.7,39.52,99.82,86.21,123.24s101.68,25.51,152.79,15.21c71.6-14.43,139.69-54.07,180.61-115.28S632.81,174.52,600.07,108.44Z" style="fill:#f5f5f5"></path></g><g id="freepik--Character--inject-74"><path d="M518.85,87.73c1.45-11.76,13.89-20.34,25.7-19.35s22,10,26.4,21c2.16,5.41,3.09,11.57,1.15,17.06-2.05,5.78-7.08,10.14-12.71,12.57a31,31,0,0,1-43-32.83" style="fill:#263238"></path><path d="M562.91,77.17a4.31,4.31,0,0,1-.39,1.61,25.78,25.78,0,0,1-1.83,4.12,31.77,31.77,0,0,1-23.86,16.26,26.41,26.41,0,0,1-4.51.2,4.49,4.49,0,0,1-1.64-.23c0-.19,2.35-.1,6-.75A33.9,33.9,0,0,0,560,82.51C562,79.32,562.73,77.1,562.91,77.17Z" style="fill:#455a64"></path><path d="M570.78,88c.06,0-.25.56-.87,1.44A40.4,40.4,0,0,1,567.05,93a42.13,42.13,0,0,1-11.84,9.29,34.47,34.47,0,0,1-7.84,2.83,31,31,0,0,1-6.77.7,24.48,24.48,0,0,1-4.55-.41,4.89,4.89,0,0,1-1.63-.42c0-.21,2.38.19,6.16,0a34.73,34.73,0,0,0,6.56-.92,36.31,36.31,0,0,0,7.57-2.82,47.86,47.86,0,0,0,11.77-8.83C569.15,89.71,570.63,87.86,570.78,88Z" style="fill:#455a64"></path><path d="M416.58,149.68c-40.69-48.89,12-93.49,47.53-93.21,33.37.26,50.8,12.06,61.57,31.38s16.68,41.84,14,63.8c-1.34,10.83-5.85,22.69-16,26.77" style="fill:#263238"></path><path d="M509.46,91l-2.17-10.32L442.9,83.16c-19.49,2.37-35.66,26.18-32.47,45.54,3.56,21.52,8.74,47.65,14.9,62.9C437.72,222.26,463,220.68,463,220.68l7.42,31.56L541,236.9Z" style="fill:#ffd1bd"></path><path d="M423.73,150.9a4.19,4.19,0,0,0,4.89,3.21,4,4,0,0,0,3.36-4.65,4.19,4.19,0,0,0-4.88-3.21A4,4,0,0,0,423.73,150.9Z" style="fill:#263238"></path><path d="M419.69,141c.49.37,3.74-.44,8.19.21s7.62,2.35,8.13,2.12c.25-.1-.23-.71-1.6-1.48a19.47,19.47,0,0,0-6.48-2.06,17.58,17.58,0,0,0-6.55.2C420,140.38,419.45,140.84,419.69,141Z" style="fill:#263238"></path><path d="M464.63,142.2a4.19,4.19,0,0,0,4.88,3.21,4,4,0,0,0,3.36-4.65,4.2,4.2,0,0,0-4.88-3.22A4,4,0,0,0,464.63,142.2Z" style="fill:#263238"></path><path d="M462.65,135.69c.6,0,2.75-2.54,6.7-4.69s7.46-2.78,7.74-3.25c.14-.22-.58-.39-2.13-.14a20.84,20.84,0,0,0-6.38,2.31,18.15,18.15,0,0,0-5.15,4C462.5,135.06,462.36,135.71,462.65,135.69Z" style="fill:#263238"></path><path d="M455.2,167.78c0-.25-2.87-.09-7.43.36-1.14.14-2.26.16-2.62-.56s-.26-2.06,0-3.49l1.35-9.31c1.8-13.22,2.83-24,2.3-24.05s-2.43,10.59-4.23,23.81q-.63,4.88-1.2,9.32c-.13,1.38-.53,3,.43,4.54a2.87,2.87,0,0,0,2.23,1.21,7.73,7.73,0,0,0,2-.17C452.48,168.65,455.24,168,455.2,167.78Z" style="fill:#263238"></path><path d="M463.08,220.76s22.79-3.87,41.06-21.5c0,0-5.61,24.76-39.22,29.43Z" style="fill:#cc8f75"></path><path d="M459.5,177.94a8.14,8.14,0,0,1,6.42-4.58,7.4,7.4,0,0,1,5.6,1.53,4.69,4.69,0,0,1,1.56,5.15c-.8,1.94-3.19,2.9-5.43,2.79a17.19,17.19,0,0,1-6.38-2.06,5.11,5.11,0,0,1-1.56-1,1.5,1.5,0,0,1-.36-1.63" style="fill:#cc8f75"></path><path d="M458.53,114.59c.71,1.1,5-.48,10.26-1s9.79-.12,10.22-1.35c.19-.58-.79-1.54-2.74-2.3a17,17,0,0,0-8-.89,17.15,17.15,0,0,0-7.59,2.71C459,112.91,458.22,114.07,458.53,114.59Z" style="fill:#263238"></path><path d="M419,127.59c1,.82,3.79-.91,7.42-1.8s6.87-.88,7.34-2.09c.19-.57-.52-1.46-2.09-2.09a11,11,0,0,0-11.89,3.13C418.69,126.06,418.51,127.18,419,127.59Z" style="fill:#263238"></path><path d="M473.69,173.05c.34.65-2.78,2.9-6.35,5.88s-6.37,5.6-7,5.14,1.46-4,5.3-7.15S473.38,172.42,473.69,173.05Z" style="fill:#263238"></path><path d="M510.32,130.82c.38-.33,14.07-11.49,19.16,6.38s-13.9,19.29-14.07,18.79S510.32,130.82,510.32,130.82Z" style="fill:#ffd1bd"></path><path d="M518.93,147.66c.07-.08.38.13,1,.22a3.24,3.24,0,0,0,2.34-.61c1.69-1.23,2.43-4.68,1.6-7.93a10.71,10.71,0,0,0-2.14-4.2,3.73,3.73,0,0,0-3-1.72,1.65,1.65,0,0,0-1.59,1.37c-.1.57.12.89,0,1s-.47-.19-.53-1a2.07,2.07,0,0,1,.38-1.32,2.42,2.42,0,0,1,1.59-.94,4.52,4.52,0,0,1,4,1.84,10.9,10.9,0,0,1,2.5,4.67c.91,3.64,0,7.53-2.34,9a3.44,3.44,0,0,1-3,.34C519.09,148.09,518.88,147.71,518.93,147.66Z" style="fill:#cc8f75"></path><path d="M472.39,71.69a7.06,7.06,0,0,0-2.64-.85c-11.41-2-23.46-1-34.06,3.66S416,87.65,411.49,98.31s-8.7,27.29-3,37.38l4.51,7.67c-1.08-7.82.57-22.64,3.7-29.89a32.06,32.06,0,0,1,16-16.7c7.23-3.21,15.43-3.2,23.17-4.86S471.78,86,474,78.41C474.65,76,474.46,73,472.39,71.69Z" style="fill:#263238"></path><path d="M406.29,126.7a4.14,4.14,0,0,1-.62-.88,18,18,0,0,1-1.4-2.74,26.13,26.13,0,0,1-1.95-11.15A30,30,0,0,1,407.63,96,38.82,38.82,0,0,1,423.46,83a52.7,52.7,0,0,1,20.06-4.54,73,73,0,0,1,9,.23c2.81.24,5.38.65,7.72.64,4.66-.3,8.58-.78,10.89-2a8,8,0,0,0,3-2.66,2.83,2.83,0,0,1-.48,1,6.46,6.46,0,0,1-2.32,2.07c-2.42,1.37-6.3,2-11.09,2.37-2.43.06-5-.31-7.81-.5a73.88,73.88,0,0,0-8.87-.13A53.07,53.07,0,0,0,423.92,84a38.51,38.51,0,0,0-15.45,12.64A29.71,29.71,0,0,0,403.1,112a27.23,27.23,0,0,0,1.57,11C405.59,125.39,406.39,126.65,406.29,126.7Z" style="fill:#455a64"></path><path d="M426.5,70.57a6.57,6.57,0,0,1,1.79-.88,27.21,27.21,0,0,1,5.23-1.44,31.61,31.61,0,0,1,17.66,2c3.23,1.39,6.07,3.06,8.86,4a19.79,19.79,0,0,0,7.68.9,16.45,16.45,0,0,0,5.14-1c1.15-.47,1.67-1,1.73-.89s-.39.65-1.54,1.28A14.52,14.52,0,0,1,467.78,76a19.39,19.39,0,0,1-8.07-.71c-2.93-.94-5.83-2.62-9-4A33,33,0,0,0,433.64,69C429.18,69.63,426.57,70.77,426.5,70.57Z" style="fill:#455a64"></path><path d="M475.11,71.69c-1.91,5.76-3.83,11.62-4,17.68s1.76,12.47,6.38,16.4c4.42,3.77,10.49,4.71,16.14,6.06s11.7,3.64,14.42,8.78c.85,1.6,1.76,7.77,3.37,8.61,2.21,1.16,5-.7,5.82-3.06s-.14-9.17-.77-11.58c-1.94-7.49-2.54-18.82-4.48-26.31-1.64-6.33-4.85-9-9.14-14-6-6.91-14.64-7.28-26.05-3.55" style="fill:#263238"></path><path d="M532.15,100.7c-.09.07-.61-.6-1.79-1.51a13.28,13.28,0,0,0-5.76-2.35,20.94,20.94,0,0,0-9.23.64A70,70,0,0,0,504.73,102a42.45,42.45,0,0,1-11.09,4,32.14,32.14,0,0,1-9.63.29,29,29,0,0,1-6.32-1.45,7.7,7.7,0,0,1-2.17-1c.07-.21,3.2,1.18,8.57,1.65a33.52,33.52,0,0,0,9.36-.52,43.35,43.35,0,0,0,10.8-3.95,65.43,65.43,0,0,1,10.84-4.55,21,21,0,0,1,9.65-.42,12.67,12.67,0,0,1,5.89,2.79,8.47,8.47,0,0,1,1.2,1.31C532.07,100.49,532.18,100.68,532.15,100.7Z" style="fill:#455a64"></path><path d="M525,87.22c-.08.06-.59-.59-1.77-1.45a12.49,12.49,0,0,0-5.71-2.06,18.5,18.5,0,0,0-8.89,1.45c-3.24,1.23-6.54,3.22-10.22,5s-7.54,3-11.2,2.88a18.71,18.71,0,0,1-9.06-2.68,17.29,17.29,0,0,1-4.81-4.17,10.06,10.06,0,0,1-1-1.42c-.2-.35-.29-.53-.26-.56.19-.18,1.82,2.92,6.43,5.47a18.57,18.57,0,0,0,8.7,2.34c3.42.11,7.09-1.1,10.69-2.85s7-3.74,10.33-5a18.69,18.69,0,0,1,9.36-1.27,11.88,11.88,0,0,1,5.87,2.5A5,5,0,0,1,525,87.22Z" style="fill:#455a64"></path><path d="M405.53,139.59l.05.17.13.5c.12.46.28,1.11.5,2,.44,1.73,1.08,4.28,2,7.55s2,7.27,3.47,11.84a41.94,41.94,0,0,0,2.86,7.11c.18.27.36.56.55.83s.45.52.71.75a11.06,11.06,0,0,0,1.63,1.32,13.66,13.66,0,0,0,4,1.8,19,19,0,0,0,9.31,0,14,14,0,0,0,4.59-1.88A14.56,14.56,0,0,0,439,168a25.83,25.83,0,0,0,4.24-10,10.68,10.68,0,0,1,.83-2.8,4.81,4.81,0,0,1,2-2.24,3.42,3.42,0,0,1,3,.11,7.77,7.77,0,0,1,2.4,1.89c.71.72,1.26,1.63,1.9,2.37a11.67,11.67,0,0,0,2.15,2.06,21.31,21.31,0,0,0,5.44,2.83,38.81,38.81,0,0,0,12.5,2.19A36.74,36.74,0,0,0,480,164a14.48,14.48,0,0,0,1.62-.31c.53-.14,1.09-.22,1.61-.4l1.58-.5c.5-.23,1-.42,1.5-.69a77.17,77.17,0,0,0,11.09-7.9c2.75-2.24,5.42-4.53,8-6.84l-.07.26c-2.72-9.73-5.33-19.11-7.79-27.93l.29.18-66.15,14.21-19.2,4.09-5.15,1.08-1.34.28-.46.08.43-.11,1.3-.29,5.08-1.14,19.12-4.21,66.26-14.48.23,0,.07.23c2.46,8.82,5.09,18.2,7.81,27.92l0,.15-.12.11c-2.59,2.33-5.27,4.61-8,6.87a78.91,78.91,0,0,1-11.18,7.95c-.5.28-1,.48-1.56.71l-1.62.52c-.53.18-1.09.26-1.64.4a15,15,0,0,1-1.65.32,37.75,37.75,0,0,1-6.61.46,39.31,39.31,0,0,1-12.66-2.23,21.64,21.64,0,0,1-5.56-2.9,12.73,12.73,0,0,1-2.24-2.16c-.68-.8-1.18-1.64-1.87-2.35a7.54,7.54,0,0,0-2.25-1.79,3,3,0,0,0-2.63-.11,4.38,4.38,0,0,0-1.8,2,10.69,10.69,0,0,0-.79,2.69,26.2,26.2,0,0,1-4.34,10.17,15.24,15.24,0,0,1-3.84,3.64,14.3,14.3,0,0,1-4.73,1.92,19.18,19.18,0,0,1-9.5-.07,13.85,13.85,0,0,1-4.07-1.86,11.08,11.08,0,0,1-1.67-1.37c-.26-.24-.48-.52-.72-.77s-.39-.59-.59-.88a42.05,42.05,0,0,1-2.85-7.19c-1.48-4.59-2.52-8.6-3.38-11.88s-1.47-5.84-1.87-7.58q-.3-1.29-.45-2l-.11-.51A1.2,1.2,0,0,1,405.53,139.59Z" style="fill:#263238"></path><path d="M415.43,169c-.14,0-1.8-5.91-3.72-13.27s-3.36-13.37-3.22-13.41,1.8,5.91,3.72,13.28S415.57,168.92,415.43,169Z" style="fill:#fafafa"></path><path d="M439.58,145.87c.13.06-1.69,4.6-4.08,10.15s-4.43,10-4.56,9.95,1.69-4.6,4.08-10.16S439.45,145.81,439.58,145.87Z" style="fill:#fafafa"></path><path d="M444.81,139.24a15.74,15.74,0,0,1-.87,2.89c-.62,1.76-1.54,4.17-2.64,6.79s-2.19,5-3,6.62a17.06,17.06,0,0,1-1.45,2.65,17.71,17.71,0,0,1,1.12-2.8l2.87-6.68,2.77-6.71A18.87,18.87,0,0,1,444.81,139.24Z" style="fill:#fafafa"></path><path d="M490,129a4.32,4.32,0,0,1-.36,1c-.26.61-.65,1.49-1.14,2.58-1,2.17-2.37,5.14-3.94,8.42-2.51,5.26-4.71,9.69-5.52,11.15l-.28.5.13-.55a2.07,2.07,0,0,1,.2-.69,3,3,0,0,1,0,.72l-.16-.05c.63-1.55,2.69-6,5.2-11.3,1.57-3.28,3-6.23,4.08-8.36.53-1.07,1-1.92,1.29-2.51A3.52,3.52,0,0,1,490,129Z" style="fill:#fafafa"></path><path d="M491.94,132.9a96.72,96.72,0,0,1-4.08,9.14A97.46,97.46,0,0,1,483.3,151a96.72,96.72,0,0,1,4.09-9.14A96,96,0,0,1,491.94,132.9Z" style="fill:#fafafa"></path><path d="M487.5,159.55a5.9,5.9,0,0,1-1.08.67,10.75,10.75,0,0,1-1.33.68c-.53.23-1.13.53-1.82.76a23,23,0,0,1-2.29.73,25.62,25.62,0,0,1-2.69.6,30.94,30.94,0,0,1-6.29.36,31.44,31.44,0,0,1-6.23-1,26.59,26.59,0,0,1-2.61-.87,18.85,18.85,0,0,1-2.19-1,16.1,16.1,0,0,1-1.74-.94,11.42,11.42,0,0,1-1.25-.81,4.92,4.92,0,0,1-1-.78c.06-.09,1.51,1,4.14,2.2a23.12,23.12,0,0,0,2.19.89c.79.32,1.67.55,2.59.82a32.82,32.82,0,0,0,6.13,1,33.28,33.28,0,0,0,6.19-.31c.94-.18,1.84-.31,2.65-.55a20.08,20.08,0,0,0,2.27-.66C485.88,160.38,487.45,159.45,487.5,159.55Z" style="fill:#fafafa"></path><path d="M505.58,147.53a2.53,2.53,0,0,1-.17-.49l-.44-1.48c-.4-1.36-1-3.26-1.64-5.62-1.41-4.91-3.36-11.73-5.61-19.62l-.13-.44.44.13,10.87,3.21,8.18,2.43.15,0,0,.14c1.15,5.4,2.21,10.36,3.12,14.61l0,.17-.15.07-10.74,5-2.93,1.36-.76.34-.25.1.27-.16.78-.4,2.94-1.47,10.51-5.19-.11.23c-.94-4.25-2-9.2-3.21-14.59l.18.19-8.18-2.42-10.88-3.23.32-.31,5.32,19.51c.64,2.41,1.16,4.34,1.53,5.72.16.65.3,1.16.4,1.55S505.58,147.51,505.58,147.53Z" style="fill:#263238"></path><polygon points="405.53 140.52 404.31 135.35 497.05 114.88 498.5 120.72 405.53 140.52" style="fill:#C0A586"></polygon><polygon points="497.05 114.88 516.25 121.36 517.46 126.45 498.5 120.72 497.05 114.88" style="fill:#C0A586"></polygon><polygon points="431.11 247.35 458.77 237.8 539.16 215.49 611.51 236.8 611.51 378.14 599.76 468.84 438.06 468.46 441.27 415.83 431.11 247.35" style="fill:#e0e0e0"></polygon><path d="M470.92,468.54s0-.23,0-.66.1-1.09.17-1.93c.17-1.71.41-4.2.72-7.41.66-6.44,1.6-15.74,2.77-27.22,2.37-23,5.67-54.75,9.58-89.79q1-8.37,1.89-16.47c.65-5.38,1.27-10.67,2.06-15.8,1.72-10.25,4-19.85,6.09-28.77,4.26-17.82,8.24-32.83,11.2-43.73v.09l-5.19-14.36-1.34-3.8-.32-1a3.45,3.45,0,0,1-.09-.34l7.21,19.38,0,0,0,.05c-2.88,10.91-6.81,25.93-11,43.75-2.07,8.92-4.32,18.53-6,28.75-.79,5.11-1.4,10.4-2,15.78s-1.25,10.89-1.89,16.47c-3.91,35-7.27,66.79-9.74,89.76-1.23,11.48-2.23,20.77-2.92,27.22-.36,3.19-.63,5.68-.82,7.39-.1.83-.17,1.47-.23,1.92S470.92,468.54,470.92,468.54Z" style="fill:#263238"></path><polygon points="455.14 336.67 445.89 409.61 489.32 419.22 500.03 340.25 455.14 336.67" style="fill:#263238"></polygon><path d="M457.64,339.87c-.19.56-8.51,66.34-7.94,66.53s35.54,7.41,35.54,7.41l10.57-70.59Z" style="fill:#fff"></path><path d="M485.66,414.41l-.52-.11c-3.58-.74-35-7.23-35.6-7.43l-.2-.06-.1-.2c-.13-.26-.37-.74,3.68-33.68,1.76-14.32,4.11-32.83,4.24-33.22l.13-.38,39.09,3.44-.08.53ZM450.17,406c2.83.63,23.23,4.85,34.65,7.21l10.41-69.53-37.17-3.27C457.34,345.79,450.29,401.14,450.17,406Z" style="fill:#263238"></path><path d="M455.14,336.67s7.36-1.49,8.4-6l26.92,1.17a15.25,15.25,0,0,0,9.57,8.42Z" style="fill:#263238"></path><polygon points="475.98 306.84 475.98 325.36 482.17 325.36 483.13 306.84 475.98 306.84" style="fill:#455a64"></polygon><polygon points="540.12 217.37 536.76 206.83 460.67 228.1 463.51 238.48 474.97 270.41 549.37 235.29 540.12 217.37" style="fill:#e0e0e0"></polygon><path d="M453.67,238.48c0,1.06,22.31,68.36,22.31,68.36h7.15l70.75-87-8.34-2.45L480.2,299.6l-18.83-62.52Z" style="fill:#263238"></path><polygon points="485.28 318.01 483.22 334.42 474.06 333.7 473.73 318.01 485.28 318.01" style="fill:#263238"></polygon><path d="M611.51,236.8s-14.1-7-26.8,22.81-12.64,106.75-12.64,106.75l-3.14,30.95h0l-70.75-23.72-14,60.13s75.83,27.33,102,31.69,37.7,2,41.27-7.93,9.71-75.39,9.71-75.39l6-59a91.28,91.28,0,0,0-.55-22.88C639.41,279,630.72,238.15,611.51,236.8Z" style="fill:#e0e0e0"></path><path d="M497.25,246.58s-.11.09-.35.23-.59.32-1.06.54a34.74,34.74,0,0,1-4,1.68,31.77,31.77,0,0,1-6.33,1.53,25.07,25.07,0,0,1-8-.18,20.1,20.1,0,0,1-7.35-3.09,17.4,17.4,0,0,1-4.63-4.59,13.9,13.9,0,0,1-1.9-4,8.15,8.15,0,0,1-.27-1.17,1.16,1.16,0,0,1,0-.41,18.74,18.74,0,0,0,2.52,5.33,17.83,17.83,0,0,0,4.59,4.4,20.25,20.25,0,0,0,7.19,3,28.83,28.83,0,0,0,14.09-1.19c1.75-.56,3.13-1.11,4.08-1.51A9.89,9.89,0,0,1,497.25,246.58Z" style="fill:#263238"></path><path d="M539.81,225.62a3.8,3.8,0,0,1-.81.64c-.54.38-1.34.91-2.35,1.53a78,78,0,0,1-8.15,4.37,75.86,75.86,0,0,1-8.63,3.35c-1.12.35-2,.62-2.69.78a4.28,4.28,0,0,1-1,.2,37.4,37.4,0,0,1,3.59-1.33c2.21-.8,5.25-2,8.52-3.48s6.14-3,8.19-4.2A34.81,34.81,0,0,1,539.81,225.62Z" style="fill:#263238"></path><path d="M499,231.05a3.62,3.62,0,1,1-3.62-3.62A3.62,3.62,0,0,1,499,231.05Z" style="fill:#263238"></path><circle cx="491.76" cy="266.41" r="3.62" style="fill:#263238"></circle><circle cx="495.38" cy="430.89" r="3.62" style="fill:#263238"></circle><path d="M644.24,312.79s0,.46-.11,1.34-.21,2.22-.38,3.94c-.34,3.47-.85,8.57-1.49,15.14-1.32,13.15-3.22,32.17-5.57,55.66-1.15,11.76-2.47,24.63-4.13,38.42-.85,6.89-1.74,14-2.95,21.33l-.48,2.74-.57,2.76a21.66,21.66,0,0,1-1.78,5.42,13.28,13.28,0,0,1-3.79,4.38l-1.23.82c-.42.24-.87.44-1.31.67l-.67.32-.69.24-1.4.5a42.38,42.38,0,0,1-11.81,1.26,108.07,108.07,0,0,1-12.11-1c-4.07-.49-8.14-1.19-12.25-2S573.33,463,569.2,462c-16.51-4.05-33.45-8.84-50.75-13.87q-18-5.24-35.22-10.54l-.23-.07.06-.23c5-21.58,9.86-42.25,14.39-61.62l.05-.25.25.07L569,397.13l-.25.17c2.72-26.56,4.93-48.09,6.46-63,.78-7.43,1.38-13.21,1.79-17.14l.48-4.47c.11-1,.18-1.51.18-1.51s0,.51-.12,1.52-.24,2.51-.43,4.47c-.38,3.93-1,9.71-1.68,17.16-1.49,14.9-3.64,36.43-6.3,63l0,.24-.22-.07L497.61,376l.3-.17c-4.51,19.37-9.32,40-14.35,61.62l-.17-.3q17.19,5.28,35.21,10.53c17.3,5,34.23,9.82,50.72,13.88,4.12,1,8.22,1.95,12.3,2.79s8.16,1.49,12.21,2a105.11,105.11,0,0,0,12,1A42,42,0,0,0,617.56,466a17.63,17.63,0,0,0,5.15-2.47,12.74,12.74,0,0,0,3.65-4.22,21.14,21.14,0,0,0,1.75-5.3l.57-2.74c.16-.92.32-1.83.47-2.74,1.23-7.29,2.13-14.41,3-21.3,1.68-13.78,3-26.65,4.19-38.4,2.42-23.49,4.38-42.5,5.73-55.65.69-6.56,1.23-11.66,1.6-15.13.18-1.72.33-3,.42-3.93S644.24,312.79,644.24,312.79Z" style="fill:#263238"></path><path d="M587.15,424.35c-.1,0-.45-1.86-1.43-4.77a44.51,44.51,0,0,0-2-5,47.66,47.66,0,0,0-3.3-5.7,47.16,47.16,0,0,0-4.13-5.15,44,44,0,0,0-3.91-3.7c-2.36-2-4-3-3.94-3.06a6.4,6.4,0,0,1,1.18.65c.37.22.82.51,1.31.87s1.09.75,1.68,1.25a39.3,39.3,0,0,1,4,3.66,44.12,44.12,0,0,1,4.21,5.18,45.38,45.38,0,0,1,3.31,5.8,39.32,39.32,0,0,1,2,5.08c.25.74.4,1.42.56,2A15.08,15.08,0,0,1,587,423,6.8,6.8,0,0,1,587.15,424.35Z" style="fill:#263238"></path><path d="M606.81,236.34a2.25,2.25,0,0,1-.49.31c-.39.2-.87.47-1.45.79l-1.06.56c-.37.21-.77.47-1.2.74-.86.54-1.88,1.11-2.9,1.88l-1.63,1.17c-.56.41-1.11.89-1.69,1.36-1.19.92-2.34,2-3.57,3.2a58.81,58.81,0,0,0-7,8.45,59.54,59.54,0,0,0-5.18,9.67c-.6,1.58-1.22,3.07-1.62,4.52-.21.72-.46,1.4-.62,2.08s-.32,1.33-.47,1.95c-.33,1.24-.47,2.39-.65,3.39-.09.5-.18,1-.24,1.4s-.08.82-.12,1.19c-.07.66-.13,1.2-.18,1.64a2.51,2.51,0,0,1-.1.57,2.34,2.34,0,0,1,0-.58q0-.64.09-1.65c0-.37,0-.77.08-1.2s.12-.9.19-1.41a34,34,0,0,1,.58-3.42c.14-.64.29-1.29.44-2s.39-1.38.6-2.11c.39-1.47,1-3,1.58-4.57A53.55,53.55,0,0,1,592.48,246c1.26-1.15,2.42-2.28,3.64-3.19.59-.47,1.15-.95,1.72-1.35l1.67-1.15a33.5,33.5,0,0,1,3-1.83c.44-.26.85-.51,1.23-.71l1.08-.52,1.5-.71A2.43,2.43,0,0,1,606.81,236.34Z" style="fill:#263238"></path><path d="M312,312.42l5.36,43.86s4.44,62.94,26,62.94c22.24,0,45.83-10.06,51.12-17.7s45.89-58,45.89-58l-9.29-96.12S416,259.73,409.42,274.88s-42.14,64.05-42.14,64.05l-6.58-30.54Z" style="fill:#e0e0e0"></path><path d="M370.19,346.89a3.76,3.76,0,0,1,.31.57c.22.43.49,1,.83,1.66s.79,1.62,1.2,2.69,1,2.26,1.41,3.64c.23.69.48,1.4.74,2.15s.44,1.54.68,2.36c.5,1.63.87,3.41,1.28,5.28a74,74,0,0,1,.79,24.78c-.3,1.89-.55,3.69-.95,5.34-.18.83-.33,1.64-.53,2.41l-.6,2.19c-.35,1.4-.82,2.63-1.18,3.72a27.45,27.45,0,0,1-1,2.75c-.29.71-.53,1.28-.72,1.72a2.21,2.21,0,0,1-.28.58,4.05,4.05,0,0,1,.19-.62c.16-.45.37-1,.62-1.75s.63-1.68.95-2.78.77-2.32,1.09-3.72l.57-2.19c.19-.76.32-1.57.5-2.39.37-1.65.61-3.45.89-5.33a84.82,84.82,0,0,0,.61-12.34,83.51,83.51,0,0,0-1.39-12.28c-.4-1.86-.75-3.63-1.22-5.26-.23-.81-.42-1.61-.66-2.35s-.48-1.47-.7-2.15c-.41-1.38-.93-2.58-1.33-3.65s-.78-2-1.11-2.71-.55-1.27-.74-1.71A2.67,2.67,0,0,1,370.19,346.89Z" style="fill:#263238"></path><path d="M437.12,335c-.14,0-2.41-10.63-5.07-23.79s-4.7-23.87-4.56-23.89,2.41,10.62,5.07,23.78S437.26,335,437.12,335Z" style="fill:#263238"></path><path d="M326.6,322.36a3.62,3.62,0,1,1-3.62-3.62A3.62,3.62,0,0,1,326.6,322.36Z" style="fill:#263238"></path><path d="M359.77,309.68l-6.19-33.54-36.1-5.73c.58,0-.11,41.56-.11,41.56Z" style="fill:#ffd1bd"></path><path d="M315.17,195.54l-11.53,13-2.56,1.6a6.43,6.43,0,0,0-2.91,4.35l-.56,3.28s-2.49-.36-2.84,2.84,0,6.29,2.13,8.51c2.64,2.83,9.18,8.54,9.18,8.54s9.47,13.06,9.6,14.63c.64,7.74.45,37.56.45,37.56l40.93-2-14.61-55.43s1.57-1,1.28-5.57a9.32,9.32,0,0,0,.29-6.27s.85-5.71-.57-8.13a7.63,7.63,0,0,0,2.85-4.14c.57-2.57-1.43-5-5.28-7.56s-10.13-7.13-12.41-7.7c-1.36-.34-5.11-.23-7.91-.08A8,8,0,0,0,315.17,195.54Z" style="fill:#455a64"></path><path d="M323.8,235.68l5.11,13.87a5.72,5.72,0,0,0,3.4,1c2.19,0,6.45-.74,8.37-2.67a8.07,8.07,0,0,0,1.88-4.7l-5.87-15.49-6.57-1.22-4.62,3.65Z" style="fill:#263238"></path><path d="M331.52,247l34.57,85.34,4.1-1.45-30.06-86.22S335.28,241.79,331.52,247Z" style="fill:#C0A586"></path><path d="M339.79,235.83a19.09,19.09,0,0,1-2.38-.48,11.76,11.76,0,0,0-5.68.23,10.32,10.32,0,0,0-2.79,1.43,11.43,11.43,0,0,0-1.86,1.78c-1,1.14-1.35,2-1.42,2a5.33,5.33,0,0,1,1.13-2.18,10.68,10.68,0,0,1,1.86-1.93,9.86,9.86,0,0,1,2.92-1.54,10.85,10.85,0,0,1,5.92-.1,11,11,0,0,1,1.7.55C339.59,235.69,339.8,235.79,339.79,235.83Z" style="fill:#fafafa"></path><path d="M342.87,244a23.65,23.65,0,0,0-2.34-1A8.7,8.7,0,0,0,330,247a23.08,23.08,0,0,0-1,2.34,1.78,1.78,0,0,1,.06-.7,7.66,7.66,0,0,1,.65-1.82,8.63,8.63,0,0,1,11-4.19,7.36,7.36,0,0,1,1.69.92C342.72,243.8,342.89,244,342.87,244Z" style="fill:#fafafa"></path><path d="M343,230a14.64,14.64,0,0,0-1.24-5.39,14.37,14.37,0,0,0-3.57-4.77,16.47,16.47,0,0,0-6.46-3.39,21.14,21.14,0,0,0-7.31-.63,28.83,28.83,0,0,0-5.93,1.16c-1.65.51-2.95,1-3.84,1.39a9.47,9.47,0,0,1-1.41.55,7.73,7.73,0,0,1,1.32-.73,32.63,32.63,0,0,1,3.82-1.56,27.29,27.29,0,0,1,6-1.29,21,21,0,0,1,7.49.61,16.49,16.49,0,0,1,6.63,3.53,14.3,14.3,0,0,1,3.6,5,12.24,12.24,0,0,1,1,4,8,8,0,0,1,0,1.13A1.08,1.08,0,0,1,343,230Z" style="fill:#263238"></path><path d="M330.89,224.64a4.26,4.26,0,0,1-.89,1.72,10.27,10.27,0,0,1-8.17,4.08,4.44,4.44,0,0,1-1.91-.32c0-.09.74,0,1.9-.05a11.34,11.34,0,0,0,7.89-3.94C330.46,225.24,330.82,224.6,330.89,224.64Z" style="fill:#263238"></path><path d="M343,231.36s-.33.37-1.07.57a4,4,0,0,1-4.81-2.62c-.24-.72-.17-1.2-.11-1.2s.15.44.45,1.07a4.14,4.14,0,0,0,4.4,2.38C342.53,231.47,343,231.28,343,231.36Z" style="fill:#263238"></path><path d="M343.37,219.52a9.65,9.65,0,0,1-1-1.11c-.61-.73-1.51-1.78-2.67-3a63,63,0,0,0-10-8.7,4.11,4.11,0,0,0-3.36-.91,27.77,27.77,0,0,0-3.25,1.28l-5.52,2.34-3.74,1.54a8.6,8.6,0,0,1-1.41.5,7.65,7.65,0,0,1,1.32-.69c1-.44,2.2-1,3.68-1.69l5.48-2.44,1.59-.7a9.93,9.93,0,0,1,1.74-.64,3.61,3.61,0,0,1,2,.07,6.8,6.8,0,0,1,1.78.91,56.55,56.55,0,0,1,10,8.88c1.13,1.29,2,2.37,2.56,3.14A7.5,7.5,0,0,1,343.37,219.52Z" style="fill:#263238"></path><path d="M343.45,212.37a10.11,10.11,0,0,1-1.24-1L339,208.68a123.75,123.75,0,0,0-11.16-8.46,11.4,11.4,0,0,0-3.58-1.52,6.89,6.89,0,0,0-3.56.22,21.83,21.83,0,0,0-5.43,3,30,30,0,0,1-3.62,2.27,11,11,0,0,1-1.06.46c-.26.09-.39.13-.4.11s.5-.26,1.37-.75a39.35,39.35,0,0,0,3.5-2.39,20.39,20.39,0,0,1,5.5-3.19,7.13,7.13,0,0,1,3.8-.27,11.72,11.72,0,0,1,3.75,1.58,101.05,101.05,0,0,1,11.13,8.62c1.35,1.18,2.42,2.16,3.16,2.85A8.77,8.77,0,0,1,343.45,212.37Z" style="fill:#263238"></path><path d="M323,235.29a5.7,5.7,0,0,1-5.62,3,25.86,25.86,0,0,0,3-1.1A26.43,26.43,0,0,0,323,235.29Z" style="fill:#263238"></path><path d="M323.68,247.35a6.28,6.28,0,0,1-2.13-.24,22,22,0,0,1-4.88-1.68,21.29,21.29,0,0,1-4.37-2.76,6.37,6.37,0,0,1-1.52-1.5,48.12,48.12,0,0,0,6.11,3.79A49.35,49.35,0,0,0,323.68,247.35Z" style="fill:#263238"></path><path d="M306.47,220.31c0,.08-.64-.18-1.67-.26a6.47,6.47,0,0,0-3.8.89,6.34,6.34,0,0,0-2.49,3c-.39,1-.43,1.61-.52,1.61a3,3,0,0,1,.17-1.74,6,6,0,0,1,6.69-4.13A2.92,2.92,0,0,1,306.47,220.31Z" style="fill:#263238"></path><path d="M366.77,339.08l27.84,63.36A7.21,7.21,0,0,0,404,406h0a7.22,7.22,0,0,0,3.74-9.66l-26.88-63.08Z" style="fill:#f5f5f5"></path><path d="M366.77,339.08,367,339l.69-.3,2.72-1.16,10.36-4.37.13-.06.06.13,12.19,28.39c2.44,5.7,5.05,11.82,7.8,18.24l4.2,9.86,2.17,5.08a24.82,24.82,0,0,1,1,2.63,7.27,7.27,0,0,1,.2,2.9,7.49,7.49,0,0,1-1.95,4.17,8,8,0,0,1-1.81,1.42,8.85,8.85,0,0,1-2.15.8,7.52,7.52,0,0,1-7.81-3.34,15.87,15.87,0,0,1-.95-1.95c-.28-.65-.57-1.3-.85-1.94-.57-1.29-1.12-2.57-1.68-3.83-1.1-2.53-2.19-5-3.24-7.41-4.21-9.64-8-18.32-11.18-25.63s-5.71-13.14-7.48-17.23c-.87-2-1.54-3.58-2-4.68l-.51-1.2a2.43,2.43,0,0,1-.16-.41s.08.15.21.43l.56,1.22c.49,1.1,1.19,2.68,2.1,4.7l7.66,17.21,11.27,25.47,3.25,7.36c.55,1.26,1.11,2.52,1.68,3.8l.84,1.93a15.75,15.75,0,0,0,.92,1.89,7,7,0,0,0,7.27,3.1,7.55,7.55,0,0,0,2-.75,7.2,7.2,0,0,0,1.69-1.32,6.94,6.94,0,0,0,1.63-6.57,24.79,24.79,0,0,0-1-2.56c-.72-1.71-1.44-3.41-2.16-5.08l-4.2-9.87-7.75-18.26-12-28.45.19.08-10.34,4.18-2.78,1.12L367,339Z" style="fill:#263238"></path><path d="M382.48,371l13,30.29a6.11,6.11,0,0,0,7.91,3h0a6.1,6.1,0,0,0,3.16-8.17l-12.93-29.74Z" style="fill:#C0A586"></path><rect x="384.71" y="352.06" width="8.03" height="35.79" transform="translate(-113.93 182.03) rotate(-23.08)" style="fill:#fafafa"></rect><path d="M394.13,382.56a1.83,1.83,0,0,1-2.28-2.48l.61.28a1.06,1.06,0,0,0,0,.92,1.06,1.06,0,0,0,2-.83,1,1,0,0,0-.69-.62l.22-.63a1.82,1.82,0,0,1,.21,3.36Z" style="fill:#263238"></path><path d="M392.8,379.42a1.82,1.82,0,1,1,.86-2.34A1.72,1.72,0,0,1,392.8,379.42Zm-1.12-2.63a1,1,0,1,0,1.38.54A1,1,0,0,0,391.68,376.79Z" style="fill:#263238"></path><path d="M391.84,373l-.6.95,0,0,.26.62.85-.36.3.7-3.05,1.31-.57-1.33a1.24,1.24,0,0,1,.55-1.8,1.1,1.1,0,0,1,1.23.22l.69-1.1Zm-2.19,1.72.24.57,1.07-.45-.25-.58c-.18-.43-.48-.56-.81-.42S389.46,374.24,389.65,374.67Z" style="fill:#263238"></path><path d="M387,370.05l3.62,0,.29.7-2.49,2.62-.33-.76,1.79-1.86-2.58,0Z" style="fill:#263238"></path><path d="M386.89,369.8l-.3-.71,3.05-1.3.3.71Z" style="fill:#263238"></path><path d="M386.28,368.37l-.59-1.39a1.67,1.67,0,1,1,3.05-1.31l.59,1.39Zm1.9-2.41a1,1,0,1,0-1.9.8l.28.65,1.89-.81Z" style="fill:#263238"></path><path d="M386.35,364.22l-.53-1.24.54-.23.53,1.23Z" style="fill:#263238"></path><path d="M383.63,362.16l3.06-1.3.3.71-2.49,1.06.26.61-.56.24Z" style="fill:#263238"></path><path d="M383.83,358.57a1.61,1.61,0,0,1,2.31.85,1.72,1.72,0,0,1,.15.94l-.63,0a1.09,1.09,0,0,0-.09-.64.89.89,0,0,0-1.26-.48,1.12,1.12,0,0,1,.6.64,1.06,1.06,0,0,1-.5,1.46,1.14,1.14,0,0,1-1.51-.72A1.42,1.42,0,0,1,383.83,358.57Zm-.2,1a.51.51,0,0,0-.22.73.5.5,0,0,0,.67.32.51.51,0,0,0,.24-.72A.53.53,0,0,0,383.63,359.58Z" style="fill:#263238"></path><polygon points="463.38 362.74 495.98 383.16 485.28 427.88 453.88 398.94 463.38 362.74" style="fill:#ffd1bd"></polygon><path d="M364,341.57s-2.37-4,.08-6.8c2.29-2.6,14.57-13.06,19.41-17.15A6.62,6.62,0,0,1,388,316l22.85.71s11.18-1.27,12.25,0,7.64,9,7.64,9l17.59,26.36,28.91,17.95S481.61,395,458.71,405L442.2,392.71a22.7,22.7,0,0,1-12.83-4c-5.89-4.28-24.46-34.46-24.46-34.46s-17,.31-20.27.7-8.25-.62-8.44-3.11c0,0-3.37,2.07-5.51,1.87a4,4,0,0,1-3.92-3.17,4.83,4.83,0,0,1-3.57-3.87C362.75,342.94,364,341.57,364,341.57Z" style="fill:#455a64"></path><path d="M429.35,325.86a12,12,0,0,1-1.09,2.74,33.25,33.25,0,0,1-8.82,11.11,12,12,0,0,1-2.43,1.68,27,27,0,0,1,2.19-2,43.54,43.54,0,0,0,4.84-5.12,42.56,42.56,0,0,0,3.89-5.88A26.1,26.1,0,0,1,429.35,325.86Z" style="fill:#263238"></path><path d="M431.74,330.66a3.86,3.86,0,0,1-.09,1c-.09.66-.27,1.61-.53,2.78a56.59,56.59,0,0,1-7.05,17.24c-.64,1-1.18,1.82-1.58,2.36a3.87,3.87,0,0,1-.66.8c-.06,0,.74-1.28,1.92-3.35a73.27,73.27,0,0,0,4.08-8.33,71.87,71.87,0,0,0,2.93-8.81C431.37,332.09,431.66,330.65,431.74,330.66Z" style="fill:#263238"></path><path d="M438.06,336.2a3.35,3.35,0,0,1,0,1c0,.66-.18,1.6-.39,2.76a38.16,38.16,0,0,1-2.78,8.73,38.92,38.92,0,0,1-4.77,7.83,26,26,0,0,1-1.82,2.1,4.68,4.68,0,0,1-.75.7c-.07-.06.9-1.14,2.27-3a43.79,43.79,0,0,0,7.49-16.42C437.79,337.63,438,336.19,438.06,336.2Z" style="fill:#263238"></path><path d="M455.08,369.93a4.11,4.11,0,0,1-.15,1,25.21,25.21,0,0,1-.72,2.69,34.71,34.71,0,0,1-3.94,8.28,35.11,35.11,0,0,1-6,6.95,24,24,0,0,1-2.17,1.75,3.5,3.5,0,0,1-.86.54c-.06-.07,1.1-.95,2.78-2.56a39.26,39.26,0,0,0,9.81-15.08C454.65,371.32,455,369.91,455.08,369.93Z" style="fill:#263238"></path><path d="M456.56,375.72a13.66,13.66,0,0,1-1.08,2.76,53.08,53.08,0,0,1-3.4,6.29,54.6,54.6,0,0,1-4.17,5.8,13.34,13.34,0,0,1-2,2.16,21.81,21.81,0,0,1,1.73-2.39c1.09-1.46,2.55-3.5,4-5.85s2.68-4.55,3.51-6.17A20.31,20.31,0,0,1,456.56,375.72Z" style="fill:#263238"></path><path d="M403.11,323.27a12.32,12.32,0,0,1-1.79.15l-4.87.24-7.23.27-2.09.08-1.07,0-.55,0-.33.25c-1.17.89-2.35,1.87-3.57,2.87l-12.42,10.24-3.79,3.08a11.12,11.12,0,0,1-1.43,1.07,12.2,12.2,0,0,1,1.3-1.23l3.68-3.2c3.13-2.68,7.47-6.37,12.33-10.37,1.22-1,2.4-2,3.59-2.87a2.14,2.14,0,0,1,.6-.34l.55,0,1.08,0,2.09-.06,7.24-.16,4.89-.07A11.42,11.42,0,0,1,403.11,323.27Z" style="fill:#263238"></path><path d="M404.76,332.25a7,7,0,0,1-1.27.14l-3.5.22-12,.6.15-.06-4.1,3.41c-4.72,3.91-9,7.42-12.12,9.94l-3.72,3a11,11,0,0,1-1.4,1,10.84,10.84,0,0,1,1.28-1.19l3.6-3.09c3.06-2.6,7.31-6.15,12-10.06l4.12-3.4.07-.05h.08l12-.41,3.52-.07A7,7,0,0,1,404.76,332.25Z" style="fill:#263238"></path><path d="M414.75,322.36a9.4,9.4,0,0,1-1.41,1.9c-.94,1.12-2.3,2.62-3.89,4.18s-3.12,2.89-4.26,3.81a9.25,9.25,0,0,1-1.93,1.37A12.6,12.6,0,0,1,405,332c1.07-1,2.55-2.35,4.13-3.9s3-3,4-4.05A12.36,12.36,0,0,1,414.75,322.36Z" style="fill:#263238"></path><path d="M416.3,346.2s-.46-.46-1.37-1.19a14.19,14.19,0,0,0-4.33-2.28,20.88,20.88,0,0,0-7.2-.93,44.3,44.3,0,0,0-8.84,1.45c-3.1.76-6.07,1.52-8.83,1.93a32.62,32.62,0,0,0-3.84.76,8.62,8.62,0,0,0-3,1.47,5.56,5.56,0,0,0-2.12,4.17,4.92,4.92,0,0,0,.43,1.73s-.11-.12-.27-.39a3.6,3.6,0,0,1-.36-1.33,5.64,5.64,0,0,1,2.09-4.46c1.67-1.45,4.26-2,7-2.42s5.67-1.21,8.79-2a43.21,43.21,0,0,1,8.95-1.42,20.7,20.7,0,0,1,7.33,1.06,13.36,13.36,0,0,1,4.34,2.48,9.44,9.44,0,0,1,1,1C416.22,346.06,416.32,346.19,416.3,346.2Z" style="fill:#263238"></path></g><g id="freepik--Microscope--inject-74"><polygon points="216.45 315.92 229.74 317.47 231.85 320.14 230.77 328.46 227.97 330.6 215.18 328.26 216.45 315.92" style="fill:#263238"></polygon><path d="M229.61,317.37a38.45,38.45,0,0,1-.64,6.4,40.37,40.37,0,0,1-1.16,6.34,39.77,39.77,0,0,1,.64-6.41A40.68,40.68,0,0,1,229.61,317.37Z" style="fill:#455a64"></path><path d="M225.77,330.17a40.85,40.85,0,0,1,.77-6.47,39.06,39.06,0,0,1,1.28-6.39,40.85,40.85,0,0,1-.77,6.47A40.68,40.68,0,0,1,225.77,330.17Z" style="fill:#455a64"></path><path d="M203.64,336.78c0,.76,8.51,12.91,8.51,12.91h7.77l3-2.18,1.32-7.53-9.29-12.06Z" style="fill:#263238"></path><path d="M224.23,340a12.61,12.61,0,0,1-1.83,1.38c-1.15.82-2.7,2-4.37,3.35-3.34,2.72-5.86,5.15-6,5a9,9,0,0,1,1.52-1.73c1-1,2.44-2.34,4.12-3.72a44.75,44.75,0,0,1,4.5-3.25A8.32,8.32,0,0,1,224.23,340Z" style="fill:#455a64"></path><path d="M223.33,338.8c.07.15-3.09,1.64-6.41,4.35a58.75,58.75,0,0,0-5.53,5.4,7.17,7.17,0,0,1,1.27-1.91,27.27,27.27,0,0,1,3.93-3.9,29.21,29.21,0,0,1,4.63-3.05A7.86,7.86,0,0,1,223.33,338.8Z" style="fill:#455a64"></path><rect x="188.56" y="335.66" width="14.28" height="19.47" style="fill:#263238"></rect><path d="M203,352.94a49.62,49.62,0,0,1-7.12.26,49.53,49.53,0,0,1-7.11-.26,47.85,47.85,0,0,1,7.11-.26A47.93,47.93,0,0,1,203,352.94Z" style="fill:#455a64"></path><path d="M203.12,351.18a47.74,47.74,0,0,1-7.11.26,47.74,47.74,0,0,1-7.11-.26,49.41,49.41,0,0,1,7.11-.26A49.41,49.41,0,0,1,203.12,351.18Z" style="fill:#455a64"></path><path d="M181.5,330.19A19.61,19.61,0,0,0,217.16,316l-7.54,4.92Z" style="fill:#ebebeb"></path><path d="M145.3,409.16h19.21v-18.8h40.41a4.77,4.77,0,0,0,4.77-4.77h0a4.78,4.78,0,0,0-4.77-4.77H181.35v-6.45h42.51a4.64,4.64,0,0,0,4.63-4.63h0a4.63,4.63,0,0,0-4.63-4.63H153.57v7.29h-7.86Z" style="fill:#263238"></path><path d="M153.57,365.11c0,14.77,0,29.28,0,44.05" style="fill:#263238"></path><path d="M153.52,409.16c-.15,0-.25-9.86-.24-22s.14-22,.29-22,.25,9.86.23,22S153.66,409.16,153.52,409.16Z" style="fill:#455a64"></path><path d="M164.45,365.75c.14,0,.26,5.57.26,12.43s-.12,12.43-.26,12.43-.26-5.57-.26-12.43S164.3,365.75,164.45,365.75Z" style="fill:#455a64"></path><path d="M228.49,446.5A24.07,24.07,0,0,0,209,429.66h-63.9l-1.4,17.95Z" style="fill:#ebebeb"></path><path d="M111.52,404.12V331.61a5,5,0,0,1,3.9-4.91l60.06-17.09.59-23.79,35.91-.59L223.09,275l17.53,20h0L217.36,320.4l-71.3,22.12-1.18,104h83.44a3.68,3.68,0,0,1,3.67,3.68v13.59H111.52Z" style="fill:#455a64"></path><rect x="182.43" y="358.79" width="38.77" height="6.32" rx="3.05" style="fill:#e0e0e0"></rect><path d="M218.15,365.11a7.35,7.35,0,0,0,.84-.18,3,3,0,0,0,1.78-1.52,3.13,3.13,0,0,0,.3-1.68,2.81,2.81,0,0,0-.77-1.84,2.9,2.9,0,0,0-2.05-.93h-2.74l-30,.08a2.81,2.81,0,0,0-2.76,2.38,3.19,3.19,0,0,0,.28,1.91,2.82,2.82,0,0,0,1.38,1.28,4.46,4.46,0,0,0,1.92.23h5.91l13.5.05,9.11.09,2.47,0a4.73,4.73,0,0,1,.86.06,5.65,5.65,0,0,1-.86.05l-2.47,0-9.11.08-13.5.06H186.3a5,5,0,0,1-2.13-.27,3.3,3.3,0,0,1-1.62-1.51,3.74,3.74,0,0,1-.34-2.23,3.32,3.32,0,0,1,3.27-2.82l30,.07,2.75,0a3.18,3.18,0,0,1,2.26,1.07,3.09,3.09,0,0,1,.8,2,3.3,3.3,0,0,1-.37,1.78A3.05,3.05,0,0,1,219,365,2.22,2.22,0,0,1,218.15,365.11Z" style="fill:#263238"></path><circle cx="128.21" cy="403.51" r="18.61" style="fill:#263238"></circle><path d="M138.55,404.11a22.94,22.94,0,0,0-.42-2.5,10.32,10.32,0,0,0-3.78-5.57,10,10,0,0,0-4.27-1.87,10.17,10.17,0,0,0-5.31.46,10.14,10.14,0,0,0-4.69,3.52,10.08,10.08,0,0,0,0,11.92,9.45,9.45,0,0,0,2.13,2.15,9.65,9.65,0,0,0,2.56,1.38,10.11,10.11,0,0,0,9.58-1.41,10.37,10.37,0,0,0,3.78-5.58,22.51,22.51,0,0,0,.42-2.5,7.94,7.94,0,0,1-.23,2.55,10.31,10.31,0,0,1-3.74,5.82,10.45,10.45,0,0,1-4.42,2,10.58,10.58,0,0,1-5.56-.43,9.78,9.78,0,0,1-2.68-1.43,10.17,10.17,0,0,1-2.25-2.24,10.52,10.52,0,0,1,0-12.53,9.76,9.76,0,0,1,2.25-2.24,10.09,10.09,0,0,1,2.68-1.44,10.66,10.66,0,0,1,5.55-.43,10.35,10.35,0,0,1,4.42,2,10.23,10.23,0,0,1,3.75,5.81A7.94,7.94,0,0,1,138.55,404.11Z" style="fill:#455a64"></path><polygon points="217.41 277.73 238.75 300.94 246.21 293.31 225.02 270.71 217.41 277.73" style="fill:#263238"></polygon><path d="M249.92,257.11l-9.74,9.29a1.67,1.67,0,0,0-.06,2.35l8.28,8.79a1.67,1.67,0,0,0,2.39,0l9.86-9.74a1.67,1.67,0,0,0,0-2.37l-8.4-8.34A1.66,1.66,0,0,0,249.92,257.11Z" style="fill:#263238"></path><path d="M241,268.38c-.24.35-10.91,10.7-10.91,10.7l8.47,8.66,10.74-10.67Z" style="fill:#263238"></path><rect x="98.67" y="463.77" width="144.08" height="5.5" style="fill:#263238"></rect><rect x="176.07" y="414.45" width="32.92" height="15.21" style="fill:#455a64"></rect><path d="M179.64,429.66a108.59,108.59,0,0,1,0-15,108.59,108.59,0,0,1,0,15Z" style="fill:#263238"></path><path d="M185.15,429.66a108.59,108.59,0,0,1,0-15,108.59,108.59,0,0,1,0,15Z" style="fill:#263238"></path><path d="M190.65,429.66a108.59,108.59,0,0,1,0-15,108.59,108.59,0,0,1,0,15Z" style="fill:#263238"></path><path d="M196.16,429.66a108.59,108.59,0,0,1,0-15,108.59,108.59,0,0,1,0,15Z" style="fill:#263238"></path><path d="M201.67,429.66a108.59,108.59,0,0,1,0-15,108.59,108.59,0,0,1,0,15Z" style="fill:#263238"></path><path d="M207.17,429.66a108.59,108.59,0,0,1,0-15,108.59,108.59,0,0,1,0,15Z" style="fill:#263238"></path></g><g id="freepik--Samples--inject-74"><path d="M375.15,400.84l.66,59.08a6.17,6.17,0,0,0,6.15,5.94h0a6.16,6.16,0,0,0,6.17-6.34V401Z" style="fill:#e0e0e0"></path><path d="M375.15,400.84h3.38l9.6,0h.15V401c0,6.75.05,15.8.08,26.37,0,5.3,0,11,0,16.94,0,3,0,6,0,9.15v4.71c0,.79,0,1.59-.06,2.43a6.48,6.48,0,0,1-3.76,5,6.41,6.41,0,0,1-8.93-4.85,11.69,11.69,0,0,1-.09-1.85c0-.61,0-1.21,0-1.81,0-1.2,0-2.39,0-3.57q0-3.54-.06-6.91c-.07-9-.14-17.07-.19-23.88s-.07-12.22-.1-16c0-1.86,0-3.32,0-4.34,0-.47,0-.84,0-1.11s0-.38,0-.37a2.12,2.12,0,0,1,0,.4c0,.29,0,.67,0,1.16,0,1,.05,2.51.09,4.39.06,3.83.15,9.32.26,16.09s.21,14.83.34,23.77q0,3.36.09,6.87c0,1.17,0,2.35,0,3.54,0,.6,0,1.2,0,1.8a12.86,12.86,0,0,0,.09,1.78,6,6,0,0,0,4.65,4.84,6,6,0,0,0,3.57-.38,5.94,5.94,0,0,0,2.7-2.43,5.8,5.8,0,0,0,.75-2.16,20.2,20.2,0,0,0,.06-2.35v-4.71c0-3.12,0-6.17,0-9.16,0-6,0-11.64,0-16.94,0-10.57.06-19.62.09-26.37l.14.14-9.52-.18-2.55-.06-.67,0Z" style="fill:#263238"></path><path d="M376.82,431.13l.07,28.14a5.21,5.21,0,0,0,5.2,5h0a5.22,5.22,0,0,0,5.22-5.36l-.21-27.7Z" style="fill:#C0A586"></path><rect x="371.32" y="396.61" width="20.63" height="12.67" rx="2.19" style="fill:#C0A586"></rect><path d="M372.8,409.13a75.49,75.49,0,0,1,0-12.52,75.49,75.49,0,0,1,0,12.52Z" style="fill:#263238"></path><path d="M375.7,409.13a75.49,75.49,0,0,1,0-12.52,75.49,75.49,0,0,1,0,12.52Z" style="fill:#263238"></path><path d="M378.6,409.13a75.49,75.49,0,0,1,0-12.52,75.49,75.49,0,0,1,0,12.52Z" style="fill:#263238"></path><path d="M381.5,409.13a75.49,75.49,0,0,1,0-12.52,75.49,75.49,0,0,1,0,12.52Z" style="fill:#263238"></path><path d="M384.41,409.13a75.49,75.49,0,0,1,0-12.52,75.49,75.49,0,0,1,0,12.52Z" style="fill:#263238"></path><path d="M387.31,409.13a75.49,75.49,0,0,1,0-12.52,75.49,75.49,0,0,1,0,12.52Z" style="fill:#263238"></path><path d="M390.21,409.13a75.49,75.49,0,0,1,0-12.52,75.49,75.49,0,0,1,0,12.52Z" style="fill:#263238"></path><rect x="378.64" y="417.16" width="6.85" height="30.56" style="fill:#fafafa"></rect><path d="M382.13,444.18a1.46,1.46,0,0,1-1.47-1.54,1.49,1.49,0,0,1,.5-1.17l.39.42a.91.91,0,0,0-.33.71.91.91,0,1,0,1.82,0,.88.88,0,0,0-.34-.71l.39-.42a1.56,1.56,0,0,1-1,2.71Z" style="fill:#263238"></path><path d="M382.13,441.27a1.56,1.56,0,1,1,1.47-1.55A1.47,1.47,0,0,1,382.13,441.27Zm0-2.44a.89.89,0,1,0,.91.89A.87.87,0,0,0,382.13,438.83Z" style="fill:#263238"></path><path d="M383.55,435.86l-.79.55v.6h.79v.66h-2.84v-1.23c0-.76.39-1.23,1-1.23a.92.92,0,0,1,.9.58l.91-.63Zm-2.31.62V437h1v-.53c0-.4-.18-.61-.49-.61S381.24,436.08,381.24,436.48Z" style="fill:#263238"></path><path d="M380.71,432l2.84,1.23v.65l-2.84,1.23v-.71l2-.87-2-.87Z" style="fill:#263238"></path><path d="M380.71,431.73v-.65h2.84v.65Z" style="fill:#263238"></path><path d="M380.71,430.4v-1.29a1.43,1.43,0,1,1,2.84,0v1.29Zm2.3-1.25a.88.88,0,1,0-1.76,0v.6H383Z" style="fill:#263238"></path><path d="M382.15,427.17V426h.51v1.15Z" style="fill:#263238"></path><path d="M380.71,424.64h2.84v.66h-2.31v.57h-.53Z" style="fill:#263238"></path><path d="M382.07,421.88a1.38,1.38,0,0,1,1.53,1.45,1.49,1.49,0,0,1-.2.79l-.48-.24a.9.9,0,0,0,.14-.53.75.75,0,0,0-.83-.8.94.94,0,0,1,.26.7.9.9,0,0,1-.88,1,1,1,0,0,1-.95-1.08C380.66,422.37,381.15,421.88,382.07,421.88Zm-.5.74a.49.49,0,1,0,.43.49A.44.44,0,0,0,381.57,422.62Z" style="fill:#263238"></path><path d="M347.84,400.84l.66,59.08a6.17,6.17,0,0,0,6.15,5.94h0a6.16,6.16,0,0,0,6.17-6.34V401Z" style="fill:#e0e0e0"></path><path d="M347.84,400.84h3.38l9.6,0H361V401c0,6.75,0,15.8.08,26.37,0,5.3,0,11,0,16.94,0,3,0,6,0,9.15v4.71c0,.79,0,1.59-.06,2.43a6.48,6.48,0,0,1-3.76,5,6.41,6.41,0,0,1-8.93-4.85,11.69,11.69,0,0,1-.09-1.85c0-.61,0-1.21,0-1.81,0-1.2,0-2.39,0-3.57q0-3.54-.06-6.91c-.07-9-.14-17.07-.19-23.88s-.08-12.22-.1-16c0-1.86,0-3.32,0-4.34,0-.47,0-.84,0-1.11s0-.38,0-.37a2.12,2.12,0,0,1,0,.4c0,.29,0,.67,0,1.16,0,1,.05,2.51.09,4.39.06,3.83.15,9.32.26,16.09s.21,14.83.34,23.77q0,3.36.09,6.87c0,1.17,0,2.35,0,3.54,0,.6,0,1.2,0,1.8a12.86,12.86,0,0,0,.09,1.78,6,6,0,0,0,4.65,4.84,6,6,0,0,0,3.57-.38,5.94,5.94,0,0,0,2.7-2.43,5.8,5.8,0,0,0,.75-2.16,20.2,20.2,0,0,0,.06-2.35v-4.71c0-3.12,0-6.17,0-9.16,0-6,0-11.64,0-16.94,0-10.57.06-19.62.09-26.37l.14.14-9.52-.18-2.55-.06-.67,0Z" style="fill:#263238"></path><path d="M349.51,431.13l.07,28.14a5.21,5.21,0,0,0,5.2,5h0a5.22,5.22,0,0,0,5.22-5.36l-.21-27.7Z" style="fill:#C0A586"></path><rect x="344.01" y="396.61" width="20.63" height="12.67" rx="2.19" style="fill:#C0A586"></rect><path d="M345.49,409.13a75.49,75.49,0,0,1,0-12.52,75.49,75.49,0,0,1,0,12.52Z" style="fill:#263238"></path><path d="M348.39,409.13a75.49,75.49,0,0,1,0-12.52,75.49,75.49,0,0,1,0,12.52Z" style="fill:#263238"></path><path d="M351.29,409.13a75.49,75.49,0,0,1,0-12.52,75.49,75.49,0,0,1,0,12.52Z" style="fill:#263238"></path><path d="M354.19,409.13a75.49,75.49,0,0,1,0-12.52,75.49,75.49,0,0,1,0,12.52Z" style="fill:#263238"></path><path d="M357.1,409.13a75.49,75.49,0,0,1,0-12.52,75.49,75.49,0,0,1,0,12.52Z" style="fill:#263238"></path><path d="M360,409.13a75.49,75.49,0,0,1,0-12.52,75.49,75.49,0,0,1,0,12.52Z" style="fill:#263238"></path><path d="M362.9,409.13a75.49,75.49,0,0,1,0-12.52,75.49,75.49,0,0,1,0,12.52Z" style="fill:#263238"></path><rect x="351.33" y="417.16" width="6.85" height="30.56" style="fill:#fafafa"></rect><path d="M354.82,444.18a1.46,1.46,0,0,1-1.47-1.54,1.49,1.49,0,0,1,.5-1.17l.39.42a.91.91,0,0,0-.33.71.91.91,0,0,0,1.82,0,.91.91,0,0,0-.34-.71l.39-.42a1.56,1.56,0,0,1-1,2.71Z" style="fill:#263238"></path><path d="M354.82,441.27a1.56,1.56,0,1,1,1.47-1.55A1.47,1.47,0,0,1,354.82,441.27Zm0-2.44a.89.89,0,1,0,.91.89A.87.87,0,0,0,354.82,438.83Z" style="fill:#263238"></path><path d="M356.24,435.86l-.79.55v.6h.79v.66H353.4v-1.23c0-.76.39-1.23,1-1.23a.92.92,0,0,1,.9.58l.91-.63Zm-2.31.62V437h1v-.53c0-.4-.18-.61-.49-.61S353.93,436.08,353.93,436.48Z" style="fill:#263238"></path><path d="M353.4,432l2.84,1.23v.65l-2.84,1.23v-.71l2-.87-2-.87Z" style="fill:#263238"></path><path d="M353.4,431.73v-.65h2.84v.65Z" style="fill:#263238"></path><path d="M353.4,430.4v-1.29a1.43,1.43,0,1,1,2.84,0v1.29Zm2.3-1.25a.88.88,0,1,0-1.76,0v.6h1.76Z" style="fill:#263238"></path><path d="M354.84,427.17V426h.51v1.15Z" style="fill:#263238"></path><path d="M353.4,424.64h2.84v.66h-2.31v.57h-.53Z" style="fill:#263238"></path><path d="M354.76,421.88a1.38,1.38,0,0,1,1.53,1.45,1.49,1.49,0,0,1-.2.79l-.48-.24a.9.9,0,0,0,.14-.53.75.75,0,0,0-.83-.8.94.94,0,0,1,.26.7.9.9,0,0,1-.88,1,1,1,0,0,1-.95-1.08C353.35,422.37,353.84,421.88,354.76,421.88Zm-.5.74a.49.49,0,1,0,.43.49A.44.44,0,0,0,354.26,422.62Z" style="fill:#263238"></path><path d="M321,400.84l.66,59.08a6.17,6.17,0,0,0,6.15,5.94h0a6.16,6.16,0,0,0,6.17-6.34V401Z" style="fill:#e0e0e0"></path><path d="M321,400.84h3.38l9.6,0h.15V401c0,6.75.05,15.8.08,26.37,0,5.3,0,11,0,16.94,0,3,0,6,0,9.15v4.71a22.21,22.21,0,0,1-.06,2.43,6.48,6.48,0,0,1-3.76,5,6.41,6.41,0,0,1-8.93-4.85,13,13,0,0,1-.09-1.85c0-.61,0-1.21,0-1.81,0-1.2,0-2.39,0-3.57q0-3.54-.06-6.91c-.07-9-.14-17.07-.19-23.88s-.07-12.22-.1-16c0-1.86,0-3.32,0-4.34,0-.47,0-.84,0-1.11s0-.38,0-.37a2.12,2.12,0,0,1,0,.4c0,.29,0,.67,0,1.16,0,1,.05,2.51.09,4.39.06,3.83.15,9.32.26,16.09s.21,14.83.34,23.77q0,3.36.09,6.87c0,1.17,0,2.35,0,3.54,0,.6,0,1.2,0,1.8a12.86,12.86,0,0,0,.09,1.78,6,6,0,0,0,4.65,4.84,6,6,0,0,0,3.57-.38,5.94,5.94,0,0,0,2.7-2.43,5.8,5.8,0,0,0,.75-2.16,20.2,20.2,0,0,0,.06-2.35v-4.71c0-3.12,0-6.17,0-9.16,0-6,0-11.64,0-16.94,0-10.57.07-19.62.09-26.37l.14.14-9.52-.18-2.55-.06-.67,0Z" style="fill:#263238"></path><path d="M322.63,431.13l.07,28.14a5.21,5.21,0,0,0,5.2,5h0a5.22,5.22,0,0,0,5.22-5.36l-.21-27.7Z" style="fill:#C0A586"></path><rect x="317.13" y="396.61" width="20.63" height="12.67" rx="2.19" style="fill:#C0A586"></rect><path d="M318.61,409.13a75.49,75.49,0,0,1,0-12.52,75.49,75.49,0,0,1,0,12.52Z" style="fill:#263238"></path><path d="M321.51,409.13a75.49,75.49,0,0,1,0-12.52,75.49,75.49,0,0,1,0,12.52Z" style="fill:#263238"></path><path d="M324.41,409.13a75.49,75.49,0,0,1,0-12.52,75.49,75.49,0,0,1,0,12.52Z" style="fill:#263238"></path><path d="M327.31,409.13a75.49,75.49,0,0,1,0-12.52,75.49,75.49,0,0,1,0,12.52Z" style="fill:#263238"></path><path d="M330.22,409.13a75.49,75.49,0,0,1,0-12.52,75.49,75.49,0,0,1,0,12.52Z" style="fill:#263238"></path><path d="M333.12,409.13a75.49,75.49,0,0,1,0-12.52,75.49,75.49,0,0,1,0,12.52Z" style="fill:#263238"></path><path d="M336,409.13a75.49,75.49,0,0,1,0-12.52,75.49,75.49,0,0,1,0,12.52Z" style="fill:#263238"></path><rect x="324.45" y="417.16" width="6.85" height="30.56" style="fill:#fafafa"></rect><path d="M327.94,444.18a1.46,1.46,0,0,1-1.47-1.54,1.49,1.49,0,0,1,.5-1.17l.39.42a.91.91,0,0,0-.33.71.91.91,0,0,0,1.82,0,.88.88,0,0,0-.34-.71l.39-.42a1.56,1.56,0,0,1-1,2.71Z" style="fill:#263238"></path><path d="M327.94,441.27a1.56,1.56,0,1,1,1.47-1.55A1.47,1.47,0,0,1,327.94,441.27Zm0-2.44a.89.89,0,1,0,.91.89A.87.87,0,0,0,327.94,438.83Z" style="fill:#263238"></path><path d="M329.36,435.86l-.79.55v.6h.79v.66h-2.84v-1.23c0-.76.39-1.23,1-1.23a.92.92,0,0,1,.9.58l.91-.63Zm-2.3.62V437h1v-.53c0-.4-.19-.61-.5-.61S327.06,436.08,327.06,436.48Z" style="fill:#263238"></path><path d="M326.52,432l2.84,1.23v.65l-2.84,1.23v-.71l2-.87-2-.87Z" style="fill:#263238"></path><path d="M326.52,431.73v-.65h2.84v.65Z" style="fill:#263238"></path><path d="M326.52,430.4v-1.29a1.43,1.43,0,1,1,2.84,0v1.29Zm2.3-1.25a.88.88,0,1,0-1.76,0v.6h1.76Z" style="fill:#263238"></path><path d="M328,427.17V426h.51v1.15Z" style="fill:#263238"></path><path d="M326.52,424.64h2.84v.66h-2.31v.57h-.53Z" style="fill:#263238"></path><path d="M327.88,421.88a1.38,1.38,0,0,1,1.53,1.45,1.49,1.49,0,0,1-.2.79l-.48-.24a.9.9,0,0,0,.14-.53.75.75,0,0,0-.82-.8,1,1,0,0,1,.25.7.9.9,0,0,1-.88,1,1,1,0,0,1-.95-1.08C326.47,422.37,327,421.88,327.88,421.88Zm-.5.74a.49.49,0,1,0,.43.49A.44.44,0,0,0,327.38,422.62Z" style="fill:#263238"></path><path d="M294.09,400.84l.65,59.08a6.17,6.17,0,0,0,6.15,5.94h0a6.16,6.16,0,0,0,6.17-6.34V401Z" style="fill:#e0e0e0"></path><path d="M294.09,400.84s.06,0,.2,0h3.17l9.61,0h.14V401c0,6.75.05,15.8.08,26.37,0,5.3,0,11,0,16.94,0,3,0,6,0,9.15v4.71a22.21,22.21,0,0,1-.06,2.43,6.48,6.48,0,0,1-3.76,5,6.41,6.41,0,0,1-8.93-4.85,13,13,0,0,1-.09-1.85c0-.61,0-1.21,0-1.81,0-1.2,0-2.39,0-3.57q0-3.54-.06-6.91c-.07-9-.14-17.07-.19-23.88s-.07-12.22-.1-16c0-1.86,0-3.32,0-4.34,0-.47,0-.84,0-1.11a1.39,1.39,0,0,1,0-.37s0,.14,0,.4,0,.67,0,1.16c0,1,.05,2.51.09,4.39.06,3.83.15,9.32.26,16.09s.21,14.83.34,23.77q0,3.36.09,6.87c0,1.17,0,2.35,0,3.54l0,1.8a10.36,10.36,0,0,0,.09,1.78,5.92,5.92,0,0,0,4.64,4.84,6,6,0,0,0,3.57-.38,5.94,5.94,0,0,0,2.7-2.43,5.8,5.8,0,0,0,.75-2.16,20.2,20.2,0,0,0,.06-2.35v-4.71q0-4.68,0-9.16c0-6,0-11.64,0-16.94,0-10.57.07-19.62.09-26.37l.14.14-9.52-.18-2.55-.06-.67,0Z" style="fill:#263238"></path><path d="M295.75,431.13l.07,28.14a5.21,5.21,0,0,0,5.2,5h0a5.22,5.22,0,0,0,5.22-5.36l-.21-27.7Z" style="fill:#C0A586"></path><rect x="290.25" y="396.61" width="20.63" height="12.67" rx="2.19" style="fill:#C0A586"></rect><path d="M291.73,409.13a75.49,75.49,0,0,1,0-12.52,75.49,75.49,0,0,1,0,12.52Z" style="fill:#263238"></path><path d="M294.63,409.13a75.49,75.49,0,0,1,0-12.52,75.49,75.49,0,0,1,0,12.52Z" style="fill:#263238"></path><path d="M297.53,409.13a75.49,75.49,0,0,1,0-12.52,75.49,75.49,0,0,1,0,12.52Z" style="fill:#263238"></path><path d="M300.44,409.13a72.7,72.7,0,0,1,0-12.52,75.49,75.49,0,0,1,0,12.52Z" style="fill:#263238"></path><path d="M303.34,409.13a75.49,75.49,0,0,1,0-12.52,75.49,75.49,0,0,1,0,12.52Z" style="fill:#263238"></path><path d="M306.24,409.13a75.49,75.49,0,0,1,0-12.52,75.49,75.49,0,0,1,0,12.52Z" style="fill:#263238"></path><path d="M309.14,409.13a75.49,75.49,0,0,1,0-12.52,75.49,75.49,0,0,1,0,12.52Z" style="fill:#263238"></path><rect x="297.57" y="417.16" width="6.85" height="30.56" style="fill:#fafafa"></rect><path d="M301.06,444.18a1.56,1.56,0,0,1-1-2.71l.39.42a.91.91,0,0,0-.34.71.91.91,0,0,0,1.82,0,.88.88,0,0,0-.34-.71l.39-.42a1.56,1.56,0,0,1-1,2.71Z" style="fill:#263238"></path><path d="M301.06,441.27a1.56,1.56,0,1,1,1.47-1.55A1.47,1.47,0,0,1,301.06,441.27Zm0-2.44a.89.89,0,1,0,.91.89A.87.87,0,0,0,301.06,438.83Z" style="fill:#263238"></path><path d="M302.48,435.86l-.79.55v.6h.79v.66h-2.84v-1.23c0-.76.4-1.23,1-1.23a.92.92,0,0,1,.9.58l.91-.63Zm-2.3.62V437h1v-.53c0-.4-.19-.61-.5-.61S300.18,436.08,300.18,436.48Z" style="fill:#263238"></path><path d="M299.64,432l2.84,1.23v.65l-2.84,1.23v-.71l2-.87-2-.87Z" style="fill:#263238"></path><path d="M299.64,431.73v-.65h2.84v.65Z" style="fill:#263238"></path><path d="M299.64,430.4v-1.29a1.43,1.43,0,1,1,2.84,0v1.29Zm2.3-1.25a.88.88,0,1,0-1.76,0v.6h1.76Z" style="fill:#263238"></path><path d="M301.09,427.17V426h.5v1.15Z" style="fill:#263238"></path><path d="M299.64,424.64h2.84v.66h-2.31v.57h-.53Z" style="fill:#263238"></path><path d="M301,421.88a1.38,1.38,0,0,1,1.53,1.45,1.59,1.59,0,0,1-.19.79l-.49-.24a.91.91,0,0,0,.15-.53.75.75,0,0,0-.83-.8,1,1,0,0,1,.25.7.9.9,0,0,1-.88,1,1,1,0,0,1-1-1.08C299.59,422.37,300.08,421.88,301,421.88Zm-.49.74a.49.49,0,0,0,0,1,.42.42,0,0,0,.42-.48A.44.44,0,0,0,300.51,422.62Z" style="fill:#263238"></path><path d="M267.21,400.84l.65,59.08a6.17,6.17,0,0,0,6.15,5.94h0a6.16,6.16,0,0,0,6.17-6.34V401Z" style="fill:#e0e0e0"></path><path d="M267.21,400.84s.06,0,.2,0h3.17l9.61,0h.14V401c0,6.75.05,15.8.08,26.37,0,5.3,0,11,0,16.94,0,3,0,6,0,9.15v4.71a22.21,22.21,0,0,1-.06,2.43,6.48,6.48,0,0,1-3.76,5,6.41,6.41,0,0,1-8.93-4.85,13,13,0,0,1-.09-1.85c0-.61,0-1.21,0-1.81,0-1.2,0-2.39,0-3.57q0-3.54-.06-6.91c-.07-9-.14-17.07-.19-23.88s-.07-12.22-.1-16c0-1.86,0-3.32,0-4.34,0-.47,0-.84,0-1.11a1.39,1.39,0,0,1,0-.37s0,.14,0,.4,0,.67,0,1.16c0,1,.05,2.51.09,4.39.06,3.83.15,9.32.26,16.09s.22,14.83.34,23.77q0,3.36.09,6.87c0,1.17,0,2.35,0,3.54l0,1.8a10.36,10.36,0,0,0,.09,1.78,5.92,5.92,0,0,0,4.64,4.84,6,6,0,0,0,3.57-.38,5.94,5.94,0,0,0,2.7-2.43,5.8,5.8,0,0,0,.75-2.16,20.2,20.2,0,0,0,.06-2.35v-4.71q0-4.68,0-9.16c0-6,0-11.64,0-16.94,0-10.57.07-19.62.09-26.37l.14.14-9.52-.18-2.55-.06-.67,0Z" style="fill:#263238"></path><path d="M268.87,431.13l.07,28.14a5.21,5.21,0,0,0,5.2,5h0a5.22,5.22,0,0,0,5.22-5.36l-.21-27.7Z" style="fill:#C0A586"></path><rect x="263.37" y="396.61" width="20.63" height="12.67" rx="2.19" style="fill:#C0A586"></rect><path d="M264.85,409.13a75.49,75.49,0,0,1,0-12.52,75.49,75.49,0,0,1,0,12.52Z" style="fill:#263238"></path><path d="M267.75,409.13a75.49,75.49,0,0,1,0-12.52,75.49,75.49,0,0,1,0,12.52Z" style="fill:#263238"></path><path d="M270.65,409.13a75.49,75.49,0,0,1,0-12.52,75.49,75.49,0,0,1,0,12.52Z" style="fill:#263238"></path><path d="M273.56,409.13a75.49,75.49,0,0,1,0-12.52,75.49,75.49,0,0,1,0,12.52Z" style="fill:#263238"></path><path d="M276.46,409.13a75.49,75.49,0,0,1,0-12.52,75.49,75.49,0,0,1,0,12.52Z" style="fill:#263238"></path><path d="M279.36,409.13a75.49,75.49,0,0,1,0-12.52,75.49,75.49,0,0,1,0,12.52Z" style="fill:#263238"></path><path d="M282.26,409.13a75.49,75.49,0,0,1,0-12.52,75.49,75.49,0,0,1,0,12.52Z" style="fill:#263238"></path><rect x="270.69" y="417.16" width="6.85" height="30.56" style="fill:#fafafa"></rect><path d="M274.18,444.18a1.56,1.56,0,0,1-1-2.71l.39.42a.91.91,0,0,0-.34.71.91.91,0,0,0,1.82,0,.91.91,0,0,0-.33-.71l.38-.42a1.56,1.56,0,0,1-1,2.71Z" style="fill:#263238"></path><path d="M274.18,441.27a1.56,1.56,0,1,1,1.47-1.55A1.47,1.47,0,0,1,274.18,441.27Zm0-2.44a.89.89,0,1,0,.91.89A.87.87,0,0,0,274.18,438.83Z" style="fill:#263238"></path><path d="M275.6,435.86l-.79.55v.6h.79v.66h-2.84v-1.23c0-.76.4-1.23,1-1.23a.92.92,0,0,1,.9.58l.91-.63Zm-2.3.62V437h1v-.53c0-.4-.19-.61-.5-.61S273.3,436.08,273.3,436.48Z" style="fill:#263238"></path><path d="M272.76,432l2.84,1.23v.65l-2.84,1.23v-.71l2-.87-2-.87Z" style="fill:#263238"></path><path d="M272.76,431.73v-.65h2.84v.65Z" style="fill:#263238"></path><path d="M272.76,430.4v-1.29a1.43,1.43,0,1,1,2.84,0v1.29Zm2.3-1.25a.88.88,0,1,0-1.76,0v.6h1.76Z" style="fill:#263238"></path><path d="M274.21,427.17V426h.5v1.15Z" style="fill:#263238"></path><path d="M272.76,424.64h2.84v.66h-2.31v.57h-.53Z" style="fill:#263238"></path><path d="M274.12,421.88a1.38,1.38,0,0,1,1.53,1.45,1.59,1.59,0,0,1-.19.79l-.49-.24a.91.91,0,0,0,.15-.53.75.75,0,0,0-.83-.8,1,1,0,0,1,.25.7.9.9,0,0,1-.88,1,1,1,0,0,1-1-1.08C272.71,422.37,273.2,421.88,274.12,421.88Zm-.49.74a.49.49,0,0,0,0,1,.42.42,0,0,0,.42-.48A.44.44,0,0,0,273.63,422.62Z" style="fill:#263238"></path><rect x="250.74" y="415.14" width="151.72" height="4.03" style="fill:#455a64"></rect><rect x="250.74" y="465.49" width="151.72" height="4.03" style="fill:#455a64"></rect><rect x="256.21" y="417.16" width="4.56" height="50.34" style="fill:#455a64"></rect><rect x="393.34" y="417.16" width="4.56" height="50.34" style="fill:#455a64"></rect></g><g id="freepik--Desk--inject-74"><path d="M714.4,469.27c0,.14-149.73.26-334.38.26s-334.42-.12-334.42-.26S195.29,469,380,469,714.4,469.12,714.4,469.27Z" style="fill:#263238"></path></g></svg>