<svg xmlns="http://www.w3.org/2000/svg" viewBox="0 0 500 500"><g id="freepik--background-simple--inject-93"><path d="M268.72,145.56c-54.65,56.86-179.15,4.73-182.54,115.83-3.26,106.46,135.57,101.13,204.7,78.41,80.15-26.35,143.7-99.56,118.59-186.6-9.7-33.62-31.45-66.27-68.59-71.92C281.53,72.24,297.68,115.41,268.72,145.56Z" style="fill:#C0A586"></path><path d="M268.72,145.56c-54.65,56.86-179.15,4.73-182.54,115.83-3.26,106.46,135.57,101.13,204.7,78.41,80.15-26.35,143.7-99.56,118.59-186.6-9.7-33.62-31.45-66.27-68.59-71.92C281.53,72.24,297.68,115.41,268.72,145.56Z" style="fill:#fff;opacity:0.9"></path></g><g id="freepik--Shadow--inject-93"><ellipse id="freepik--path--inject-93" cx="250" cy="416.24" rx="193.89" ry="11.32" style="fill:#f5f5f5"></ellipse></g><g id="freepik--Smartphone--inject-93"><rect x="125.33" y="108.59" width="141.45" height="298.74" rx="13.96" transform="translate(413.82 497.88) rotate(175.01)" style="fill:#C0A586"></rect><path d="M122.3,208.89h0a4,4,0,0,0,3.61-4.31L122.8,169a4,4,0,0,0-4.3-3.62h0a4,4,0,0,0-3.62,4.31L118,205.27A4,4,0,0,0,122.3,208.89Z" style="fill:#C0A586"></path><rect x="256.27" y="153.04" width="7.29" height="27.72" rx="2.95" transform="translate(533.37 310.54) rotate(175.01)" style="fill:#263238"></rect><rect x="259.46" y="189.56" width="7.29" height="27.72" rx="2.95" transform="matrix(-1, 0.09, -0.09, -1, 542.92, 383.16)" style="fill:#263238"></rect><rect x="127.71" y="108.39" width="141.45" height="298.74" rx="13.96" transform="translate(418.55 497.26) rotate(175.01)" style="fill:#263238"></rect><path d="M143.75,394.68,276,383.13a2.63,2.63,0,0,0,2.38-2.84L256,123.69a2.63,2.63,0,0,0-2.83-2.38L120.87,132.87a2.61,2.61,0,0,0-2.37,2.83l22.42,256.61A2.6,2.6,0,0,0,143.75,394.68Z" style="fill:#C0A586;opacity:0.4"></path><polygon points="235.69 122.84 219.07 388.1 191.43 390.52 208.05 125.25 235.69 122.84" style="fill:#C0A586;opacity:0.30000000000000004"></polygon><rect x="170.79" y="115.54" width="30.73" height="3.53" rx="1.19" transform="translate(-9.5 16.65) rotate(-4.99)" style="fill:#fff;opacity:0.2"></rect><path d="M173.8,217.12H311.41a13.53,13.53,0,0,1,13.49,13.49v67.5a13.54,13.54,0,0,1-13.49,13.5H263.79L242.6,332.8l-21.19-21.19H173.8a13.54,13.54,0,0,1-13.5-13.5v-67.5A13.53,13.53,0,0,1,173.8,217.12Z" style="fill:#C0A586"></path><path d="M173.8,217.12H311.41a13.53,13.53,0,0,1,13.49,13.49v67.5a13.54,13.54,0,0,1-13.49,13.5H263.79L242.6,332.8l-21.19-21.19H173.8a13.54,13.54,0,0,1-13.5-13.5v-67.5A13.53,13.53,0,0,1,173.8,217.12Z" style="fill:#fff;opacity:0.30000000000000004"></path><path d="M182.62,240.51v47.7a7,7,0,0,0,6.9,7.06H295.68a7,7,0,0,0,6.9-7.06v-47.7a7.25,7.25,0,0,0-.5-2.64,6.94,6.94,0,0,0-6.4-4.42H189.52a6.92,6.92,0,0,0-6.39,4.42A7,7,0,0,0,182.62,240.51Z" style="fill:#fff"></path><path d="M183.13,237.87l51.32,22.35a20.38,20.38,0,0,0,16.31,0l51.32-22.35a6.94,6.94,0,0,0-6.4-4.42H189.52A6.92,6.92,0,0,0,183.13,237.87Z" style="opacity:0.1"></path><circle cx="170.92" cy="223.11" r="20.52" transform="translate(-107.7 186.21) rotate(-45)" style="fill:#de5753"></circle><path d="M174.88,235.62H170.1v-18a16.49,16.49,0,0,1-6.17,3.62v-4.33a13.94,13.94,0,0,0,4.06-2.33,8.81,8.81,0,0,0,3-4h3.88Z" style="fill:#fff"></path><path d="M286.37,95.92a3,3,0,0,1-2.94-2.54,34.45,34.45,0,0,0-39.14-28.89,3,3,0,0,1-.88-5.89,40.4,40.4,0,0,1,45.9,33.9,3,3,0,0,1-2.5,3.38A2.25,2.25,0,0,1,286.37,95.92Z" style="fill:#C0A586"></path><path d="M271.58,98.14a3,3,0,0,1-2.94-2.53,19.47,19.47,0,0,0-22.12-16.34,3,3,0,0,1-.89-5.89,25.43,25.43,0,0,1,28.9,21.34,3,3,0,0,1-2.5,3.39A3.4,3.4,0,0,1,271.58,98.14Z" style="fill:#C0A586"></path><path d="M256.8,100.37a3,3,0,0,1-2.94-2.54,4.49,4.49,0,0,0-5.12-3.78,3,3,0,0,1-.88-5.88A10.44,10.44,0,0,1,259.75,97a3,3,0,0,1-2.5,3.38A2.28,2.28,0,0,1,256.8,100.37Z" style="fill:#C0A586"></path></g></svg>