<?xml version="1.0" encoding="UTF-8" standalone="no"?>
<!-- Created with Inkscape (http://www.inkscape.org/) -->

<svg
   version="1.1"
   id="svg931"
   xml:space="preserve"
   width="928.61713"
   height="289.17865"
   viewBox="0 0 928.61713 289.17866"
   sodipodi:docname="slingr.svg"
   inkscape:version="1.1.1 (3bf5ae0d25, 2021-09-20)"
   xmlns:inkscape="http://www.inkscape.org/namespaces/inkscape"
   xmlns:sodipodi="http://sodipodi.sourceforge.net/DTD/sodipodi-0.dtd"
   xmlns="http://www.w3.org/2000/svg"
   xmlns:svg="http://www.w3.org/2000/svg"><defs
     id="defs935" /><sodipodi:namedview
     id="namedview933"
     pagecolor="#ffffff"
     bordercolor="#cccccc"
     borderopacity="1"
     inkscape:pageshadow="0"
     inkscape:pageopacity="1"
     inkscape:pagecheckerboard="0"
     showgrid="false"
     units="px"
     width="789.92126px"
     fit-margin-top="30"
     fit-margin-left="50"
     fit-margin-right="50"
     fit-margin-bottom="30"
     lock-margins="false"
     inkscape:zoom="0.60859253"
     inkscape:cx="412.42701"
     inkscape:cy="52.580336"
     inkscape:window-width="1920"
     inkscape:window-height="1011"
     inkscape:window-x="0"
     inkscape:window-y="32"
     inkscape:window-maximized="1"
     inkscape:current-layer="g937" /><g
     id="g937"
     inkscape:groupmode="layer"
     inkscape:label="SLINGR PRINT ALT WHITE"
     transform="matrix(1.3333333,0,0,-1.3333333,-194.58949,803.48665)"><path
       d="m 263.684,464.549 c 0.828,-0.396 1.427,-1.152 1.625,-2.048 0.198,-0.896 -0.027,-1.834 -0.611,-2.542 -0.189,-0.233 -0.38,-0.462 -0.573,-0.688 -10.97,-12.9 -29.487,-16.331 -44.351,-8.219 -10.735,5.889 -19.613,12.919 -26.541,21.15 -13.524,16.042 -12.979,39.646 1.271,55.046 19.22,20.729 41.24,36.836 72.505,43.633 12.868,2.798 22.336,-0.919 25.685,-6.923 0.68,-1.212 0.81,-2.656 0.359,-3.971 -0.451,-1.314 -1.442,-2.374 -2.722,-2.913 -19.039,-8.02 -37.403,-16.834 -51.887,-30.223 -6.362,-5.872 -9.995,-14.126 -10.028,-22.784 -0.032,-8.658 3.538,-16.939 9.855,-22.859 7.067,-6.577 15.729,-11.991 25.413,-16.659 z"
       style="fill:#0073d2;fill-opacity:1;fill-rule:evenodd;stroke:none"
       id="path941" /><path
       d="m 258.474,523.797 c -0.827,0.397 -1.427,1.152 -1.624,2.049 -0.198,0.896 0.027,1.833 0.611,2.542 0.189,0.232 0.38,0.461 0.573,0.688 10.97,12.899 29.487,16.331 44.351,8.219 10.735,-5.889 19.613,-12.919 26.541,-21.151 13.524,-16.041 12.979,-39.645 -1.271,-55.046 -19.22,-20.728 -41.241,-36.835 -72.506,-43.633 -12.868,-2.797 -22.335,0.919 -25.685,6.923 -0.679,1.212 -0.81,2.657 -0.358,3.971 0.451,1.315 1.441,2.375 2.722,2.914 19.038,8.019 37.402,16.834 51.887,30.223 6.362,5.872 9.994,14.126 10.027,22.783 0.033,8.658 -3.537,16.939 -9.855,22.859 -7.066,6.578 -15.728,11.992 -25.413,16.659 z"
       style="fill:#0073d2;fill-opacity:1;fill-rule:evenodd;stroke:none"
       id="path943" /><path
       d="m 425.452,475.682 c 0,-3.833 -2.682,-5.749 -7.856,-5.749 -6.132,0 -16.48,3.066 -30.851,9.006 l -10.348,-21.844 c 13.605,-7.474 27.21,-11.114 41.199,-11.114 22.419,0 37.366,11.688 37.366,29.318 0,9.772 -3.066,16.671 -9.198,21.078 -6.132,4.407 -10.731,6.132 -19.354,8.623 l -7.664,2.108 c -5.366,1.533 -8.049,3.832 -8.049,6.706 0,3.258 3.45,5.366 8.24,5.366 7.857,0 15.713,-2.491 23.953,-7.282 l 9.581,20.12 c -10.923,6.324 -22.995,9.581 -36.408,9.581 -21.27,0 -35.258,-11.497 -35.258,-28.934 0,-15.905 10.539,-22.803 27.593,-27.594 l 7.473,-2.108 c 6.324,-1.724 9.581,-4.215 9.581,-7.281 z"
       style="fill:#0073d2;fill-opacity:1;fill-rule:nonzero;stroke:none"
       id="path945" /><path
       d="m 490.987,449.047 v 127.811 l -29.318,-3.45 V 449.047 Z"
       style="fill:#0073d2;fill-opacity:1;fill-rule:nonzero;stroke:none"
       id="path947" /><path
       d="m 501.236,449.047 h 29.5096 v 89.4869 H 501.236 Z"
       style="fill:#0073d2;fill-opacity:1;fill-rule:evenodd;stroke:none"
       id="path949" /><path
       d="m 628.707,505.766 c 0,10.731 -3.258,19.354 -9.581,25.869 -6.324,6.707 -14.564,9.964 -24.719,9.964 -10.156,0 -18.588,-3.64 -25.294,-10.922 l -2.3,10.922 -26.06,-2.874 v -89.678 h 29.509 v 48.671 c 0,9.964 5.749,16.48 14.372,16.48 9.006,0 14.563,-6.324 14.563,-16.288 v -48.863 h 29.51 z"
       style="fill:#0073d2;fill-opacity:1;fill-rule:nonzero;stroke:none"
       id="path951" /><path
       d="m 703.822,534.509 c -5.94,4.791 -13.413,7.09 -22.036,7.09 -13.989,0 -25.103,-4.407 -33.534,-13.221 -8.24,-8.623 -12.455,-20.312 -12.455,-34.684 0,-13.605 3.449,-24.527 10.347,-32.767 7.09,-8.24 16.288,-12.264 27.977,-12.264 11.497,0 20.695,3.449 27.402,10.156 v -5.365 c 0,-12.839 -8.048,-20.504 -21.845,-20.504 -7.857,0 -17.054,2.683 -27.977,7.857 l -10.539,-22.228 c 13.222,-6.899 26.827,-10.348 40.815,-10.348 14.947,0 26.827,4.408 35.642,13.222 8.814,8.815 13.222,20.695 13.222,35.833 v 81.247 H 704.78 Z m -20.887,-62.468 c -10.156,0 -16.862,8.815 -16.862,21.845 0,13.605 8.048,22.419 20.503,22.419 5.366,0 10.348,-1.149 14.947,-3.64 v -23.378 c 0,-10.156 -7.282,-17.246 -18.588,-17.246 z"
       style="fill:#0073d2;fill-opacity:1;fill-rule:nonzero;stroke:none"
       id="path953" /><path
       d="m 795.515,541.599 c -12.263,0 -21.461,-4.982 -27.401,-14.946 l -2.108,14.946 -26.061,-3.449 v -89.103 h 29.51 v 37.557 c 0,15.33 9.006,24.336 24.144,24.336 2.491,0 5.174,-0.383 8.431,-0.958 l 2.875,30.659 c -2.683,0.575 -5.749,0.958 -9.39,0.958 z"
       style="fill:#0073d2;fill-opacity:1;fill-rule:nonzero;stroke:none"
       id="path955" /><path
       d="m 515.991,580.115 c 9.201,0 16.671,-7.47 16.671,-16.671 0,-9.201 -7.47,-16.671 -16.671,-16.671 -9.201,0 -16.671,7.47 -16.671,16.671 0,9.201 7.47,16.671 16.671,16.671 z"
       style="fill:#0073d2;fill-opacity:1;fill-rule:evenodd;stroke:none"
       id="path957" /></g></svg>
